Patient4_TMGait_0pt7_02_left_21_EMG.mot
version=1
nRows=40
nColumns=33
inDegrees=no
endheader
time	1LAddLong	2LGlutMax	3LGlutMed	4LIliopsoas	5LSemiMemb	6LBicFemLong	7LRecFem	8LVastMed	9LVastLat	10LGasMed	11LTibAnt	12lTibPost	13LPeroneusLong	14LSol	15LExtDigLong	16LFlexDigLong	17RAddLong	18RGlutMax	19RGlutMed	20RIliopsoas	21RSemiMemb	22RBicFemLong	23RRecFem	24RVastMed	25RVastLat	26RGasMed	27RTibAnt	28RTibPost	29RPeroneusLong	30RSol	31RExtDigLong	32RFlexDigLong
24.65	0.012512	-0.2887	0.004272	0.012665	-0.002747	0.025787	-0.11551	0.021667	-0.063477	0.1651	0.02121	-0.008545	-0.17914	0.46066	0.030975	0.26199	0.0383	-0.090637	0.43869	0.23544	0.26718	0.10788	0.060272	0.1181	0.28275	-0.003052	-0.019073	-0.005798	-0.27359	-0.023193	-0.00824	-0.007782
24.651	0.012207	-0.29312	-0.009308	0.025482	-0.015717	-0.002899	-0.11353	0.013275	-0.057068	0.13351	0.014648	0.00412	-0.11307	0.5806	-0.012207	-0.23331	-0.041962	-0.050507	0.48599	0.1503	0.38727	0.19852	0.049591	-0.024872	0.006561	0.002747	0.010681	-0.003357	-0.33447	-0.032806	-0.014648	-0.005798
24.652	0.01236	-0.3035	-0.054474	0.018768	-0.010529	-0.038757	-0.13687	0.013733	-0.080566	-0.087585	0.011902	0.010529	0.000305	0.4454	-0.041809	-0.13031	-0.06134	-0.050201	0.8577	-0.039063	0.16266	0.029907	0.039368	0.11246	-0.21683	-0.004578	0.034027	-0.009003	-0.083618	0.012665	-0.001221	-0.011292
24.653	0.02121	-0.31128	-0.10651	0.020905	-0.009003	-0.040588	-0.13062	0.017395	-0.083008	-0.12756	0.00946	0.012512	-0.005035	0.13794	-0.046692	0.15472	-0.042114	-0.10483	0.83069	-0.17685	0.081635	0.085297	-0.069427	0.52277	-0.24185	-0.006104	0.013275	-0.007629	0.24155	0.014038	-0.005646	-0.002594
24.654	0.013733	-0.28976	-0.13321	0.023499	-0.005493	-0.023956	-0.13992	0.007782	-0.078888	-0.079498	0.023804	-0.02121	-0.041351	-0.012817	-0.037842	0.11993	-0.02655	-0.046844	0.9993	-0.12558	-0.097961	0.20447	-0.048523	0.43198	-0.076752	-0.002136	-0.029449	-0.006256	-0.050354	0.014191	-0.006714	-0.002899
24.655	0.019226	-0.31128	-0.15961	0.036163	-0.003204	-0.022583	-0.16571	0.016479	-0.083313	0.0383	0.022736	-0.005951	0.013885	-0.094604	0.003967	0.10895	0.002441	0.017395	1.2553	-0.053864	0.22201	0.20065	0.12375	0.41458	-0.13123	-0.007172	-0.030365	-0.004883	-0.2272	-0.013428	-0.006256	0.001678
24.656	0.017548	-0.27084	-0.19821	0.011597	0.017853	-0.031738	-0.15595	0.009918	-0.08316	-0.048523	0.014648	-0.040436	0.11276	-0.30746	0.02533	0.20065	0.029144	0.04303	0.99533	-0.052338	0.53848	0.042267	0.12985	0.13123	-0.082855	-0.001221	0.00946	-0.00412	-0.15671	0.001221	-0.002899	0.000153
24.657	0.020752	-0.20828	-0.23086	0.00946	0.028687	-0.023804	-0.16159	0.012512	-0.066376	-0.25742	0.01297	-0.021973	0.13702	-0.29602	0.030823	-0.14816	0.091858	-0.018463	1.0568	-0.013275	0.12085	-0.12039	-0.026093	-0.22507	0.04364	-0.003357	0.00946	-0.000458	-0.057373	-0.005798	-0.00412	-0.005798
24.658	0.016022	-0.22659	-0.20065	0.003662	0.029907	0.031738	-0.159	0.01358	-0.090942	-0.17838	0.007477	-0.005798	0.12146	-0.053711	0.011597	0.092468	0.15182	-0.021973	0.95764	-0.032349	0.07843	-0.30731	-0.17929	-0.42511	0.28229	-0.007324	-0.001831	-0.006256	-0.02655	-0.001068	-0.006866	0.000458
24.659	0.010223	-0.18387	-0.16922	0.001984	0.026855	0.042572	-0.16785	0.00946	-0.090942	-0.025787	0.019226	0.044098	0.081024	0.2504	0.016937	-0.25055	0.13992	-0.071106	0.8577	-0.018616	-0.094452	-0.53085	-0.1474	-0.55801	0.86746	-0.001831	-0.022888	-0.003662	-0.006256	0.017242	-0.000916	0.005493
24.66	0.099335	-0.13672	-0.18784	0.005493	0.02182	0.007782	-0.17685	0.007477	-0.083618	0.074463	0.009766	0.11414	0.083008	0.26047	-0.02533	-0.15762	0.0737	-0.13687	0.77911	0.029907	-0.34378	-0.33768	-0.048676	-0.67535	0.6366	-0.009308	-0.019379	0.001221	0.090027	-0.005951	-0.001221	0.001526
24.661	0.022583	-0.1619	-0.17792	-0.011139	0.023651	0.006409	-0.1857	0.00885	-0.087891	0.13351	0.001984	-0.19608	-0.000153	0.23773	-0.079498	-0.13031	-0.10101	-0.18219	0.75638	0.016632	-0.3096	-0.015106	-0.059509	-0.57663	0.098114	-0.007172	-0.009918	-0.002136	0.33524	-0.036774	-0.003357	0.006714
24.662	0.03952	-0.15747	-0.20004	0.001984	0.029602	0.069122	-0.19058	0.00946	-0.083466	0.15778	0.011902	-0.081024	-0.043945	0.41397	-0.029449	0.36957	-0.23178	-0.27145	0.83115	0.045624	0.35721	0.10666	-0.068207	-0.064545	-0.42023	-0.002747	-0.002594	-0.001526	0.23117	-0.044708	-0.007629	-0.00412
24.663	0.005951	-0.12543	-0.27496	0.019226	0.001526	0.077972	-0.18539	0.008087	-0.081177	0.22629	-0.001068	-0.016174	-0.10254	0.53635	0.017548	-0.22476	-0.23407	-0.32318	0.78735	0.03952	0.70419	0.12634	-0.000153	0.17029	-0.55801	0	0.023346	-0.002441	-0.016022	-0.030975	-0.007172	-0.00946
24.664	0.014343	-0.12848	-0.28	0.005951	-0.003815	0.071564	-0.18692	0.008698	-0.058594	0.03067	0.012054	-0.074005	-0.13962	0.43945	-0.025635	0.29465	-0.13489	-0.25559	0.76492	0.007782	0.80765	-0.070496	0.13107	0.18463	-0.46814	0.00061	0.030975	-0.00473	-0.091248	-0.018463	-0.006714	-0.00946
24.665	-0.025635	-0.097809	-0.31845	-0.007019	0.014801	0.049286	-0.21011	0.007477	-0.054474	-0.084229	0.030518	0.018616	-0.12863	-0.22903	-0.023956	0.31937	-0.049591	-0.25406	0.71228	-0.071716	0.58945	-0.14832	0.20096	0.22614	0.084229	0.000153	0.046082	-0.000305	-0.034027	-0.030975	-0.003357	-0.014038
24.666	0.084991	-0.06897	-0.15472	0.01358	0.009613	0.026855	-0.22263	0.010223	-0.042572	-0.09552	0.023651	0.085144	0.016479	-0.63217	-0.011597	-0.38284	-0.01358	-0.1796	0.70755	-0.1059	0.37079	0.070343	0.089111	0.30395	0.66345	-0.000916	0.036774	-0.001984	0.019073	-0.04837	-0.00473	-0.012054
24.667	0.075226	-0.083771	-0.22461	-0.011597	0.011597	0.029449	-0.22614	0.007172	-0.035553	-0.09201	0.019531	0.12024	0.14893	-0.76538	0.010376	0.055695	-0.024109	-0.25238	0.74844	-0.081635	0.43137	0.29907	-0.001831	0.16342	0.76355	-0.000458	0.015106	-0.003815	0.028381	-0.036469	-0.005798	-0.006866
24.668	0.029602	-0.084839	-0.25742	-0.02533	0.014954	-0.042419	-0.24033	0.004425	-0.033417	0.24963	0.015106	0.13077	0.16022	-0.65155	0.002136	0.077209	-0.019836	-0.21042	0.70465	-0.009918	0.41885	0.57083	0.15549	0.046082	0.44693	-0.00061	-0.005035	-0.005798	0.027466	-0.018921	-0.004883	-0.010681
24.669	0.024109	-0.11932	-0.24689	-0.010681	0.014191	-0.15274	-0.23972	0.000916	-0.041046	0.45166	0.002899	-0.0354	0.11993	0.22659	0.004425	0.012665	-0.03891	-0.066833	0.35584	0.051117	0.26443	0.69778	0.39856	-0.067291	-0.087433	-0.008392	0.005035	-0.002594	-0.15884	-0.005341	-0.00473	-0.008392
24.67	0.021973	-0.12558	-0.21881	-0.011902	0.000763	-0.088043	-0.2713	0.003357	-0.040588	0.37384	0.010529	0.057373	0.10025	0.79544	0.012054	0.055847	-0.010834	-0.097961	0.48782	-0.049286	0.14526	0.70923	0.49179	-0.12955	-0.58945	-0.002136	0.020447	-0.002899	-0.28214	-0.013428	-0.004578	-0.003967
24.671	0.019684	-0.11917	-0.20721	0.002747	-0.007324	-0.028839	-0.26367	0.006866	-0.059509	0.22324	0.001984	-0.002289	0.078735	0.41977	0.005341	0.011597	-0.047913	-0.13763	0.74509	-0.21912	0.13565	0.71274	0.18814	-0.10223	-0.64072	0.002136	0.054016	-0.002136	-0.1178	-0.007782	-0.005188	-0.005493
24.672	0.021362	-0.12802	-0.17029	0.037079	-0.007172	-0.028381	-0.25757	0.004425	-0.056152	0.11459	0.007782	-0.1152	0.10681	-0.44479	-0.00061	-0.027008	-0.087891	-0.15274	0.77133	-0.21454	0.24597	0.62531	-0.64392	0.24521	-0.50461	-0.001831	0.081177	-0.005798	0.34286	-0.02655	-0.005035	-0.005341
24.673	0.022736	-0.10468	-0.1976	0.052185	-0.016174	-0.048218	-0.27603	0.00473	-0.068359	-0.10056	0.001984	-0.27451	0.16876	-0.54886	0.005798	-0.058289	-0.10101	-0.18646	0.82977	-0.10315	0.4837	0.77576	-1.2216	0.49744	-0.58594	0.005798	0.082397	-0.003204	0.5835	-0.079041	-0.006866	-0.001678
24.674	0.026398	-0.094604	-0.20416	0.060272	-0.018005	0.006409	-0.28168	0.00412	-0.083923	-0.41168	0.012054	0.22812	0.16861	-0.13184	0.007172	0.012665	-0.043793	-0.15518	0.77331	0.03479	0.71411	0.9079	-0.88089	0.1741	-0.28732	0.002136	0.025635	-0.002594	-0.006714	-0.06485	-0.00351	-0.003967
24.675	0.023193	-0.10651	-0.23483	0.054474	-0.00473	0.034485	-0.26672	0.00473	-0.081024	-0.50125	0.018463	0.23209	0.11765	-0.021057	0.013885	0.079041	0.045929	-0.12268	0.69122	0.13245	0.66971	1.0442	-0.52231	-0.090332	0.22614	0.000153	-0.075531	-0.00824	-0.009155	-0.04425	-0.00351	0.005188
24.676	0.0177	-0.079803	-0.24628	0.037689	0.015717	0.036011	-0.2803	0.003357	-0.086517	-0.37033	0.007629	-0.049133	0.00885	0.26718	0.031281	0.025635	0.10483	-0.15457	0.82413	0.25162	0.66361	0.88867	-0.35416	-0.13138	0.8078	-0.000458	-0.11932	-0.002899	0.58182	-0.030975	-0.006256	0.002441
24.677	0.02655	-0.037079	-0.29114	0.010071	0.015411	0.013885	-0.31403	0.006409	-0.083008	-0.23438	0.011749	-0.079803	-0.052643	0.41046	0.033112	-0.001831	0.16998	-0.057678	0.88577	0.1738	0.6218	0.62454	-0.16281	-0.47607	1.0172	-0.000153	-0.16541	0	0.003052	-0.070038	-0.004272	0.000153
24.678	0.028381	-0.024872	-0.2887	-0.007935	0.020294	0.008087	-0.29221	0.001831	-0.079803	-0.1207	0.012207	-0.07431	-0.009155	0.19943	0.025177	-0.005035	0.15976	-0.041809	0.76584	-0.036926	0.58395	0.73227	-0.090942	-0.68634	0.89127	-0.003357	-0.077362	-0.006714	-0.20462	-0.009613	-0.003967	0.000153
24.679	0.02182	-0.031891	-0.22919	-0.006714	0.0354	-0.053406	-0.27908	0.00824	-0.09201	-0.007935	0.002289	-0.06958	0.081482	0.075226	0.018311	-0.040588	0.094299	-0.21316	0.73059	-0.059814	0.16525	1.0524	-0.25833	-0.71381	0.76767	-0.007019	-0.024872	-0.005341	-0.00824	0.013428	-0.006409	0.00412
24.68	0.016327	-0.017242	-0.16251	0.011902	0.049591	-0.11215	-0.26108	0.006714	-0.097046	0.097198	0.005188	0.007935	0.012817	0.060883	0.007782	-0.049896	-0.049438	-0.39841	0.69473	0.011749	-0.35934	1.2514	-0.34378	-0.70557	-0.037842	-0.003662	0.008698	-0.009003	0.27084	-0.018158	-0.004272	-0.007324
24.681	0.019836	-0.021515	-0.2327	0.038757	0.054474	-0.063477	-0.25589	0.007019	-0.10788	0.073853	0.019684	-0.046234	0.020294	0.065918	0.012512	-0.001678	-0.090637	-0.60684	0.82977	0.081482	-0.47089	1.376	-0.5069	-0.54596	-0.84763	-0.001526	0.020752	-0.005188	0.33463	-0.015259	-0.003357	0.003204
24.682	0.011597	-0.042877	-0.26093	0.002289	0.047607	0.045929	-0.24826	0.012207	-0.11185	0.10208	0.000305	-0.06546	0.070038	0.072632	0.014801	0.075989	-0.034485	-0.70633	0.74143	0.21286	0.090027	1.2505	-0.49835	-0.40527	-1.2447	0.002594	-0.007935	-0.001984	0.017853	-0.12558	-0.003052	-0.008392
24.683	0.013123	-0.04425	-0.27863	-0.009766	0.021973	0.048676	-0.23697	0.011292	-0.10819	0.14053	0.005798	-0.005035	0.080414	-0.16861	0.007477	-0.015717	0.001068	-0.58563	0.30579	0.2002	0.27115	1.2297	-0.40207	-0.42801	-1.4381	-0.001373	-0.002441	-0.007629	-0.22018	-0.086517	-0.003662	-0.009155
24.684	0.009918	-0.033722	-0.29098	-0.005646	0.019531	0.031738	-0.24185	0.009308	-0.1004	0.15152	0.002289	0	0.074921	-0.11993	0.006714	-0.44113	0.005188	-0.42023	0.49759	0.080414	0.34409	1.21	-0.39414	-0.36896	-1.1617	-0.002136	0.005493	-0.001068	-0.046234	-0.05661	-0.00351	-0.005798
24.685	0.014496	-0.040436	-0.31357	-0.016785	0.012512	0.048676	-0.23697	0.010223	-0.087738	0.13687	0.010071	-0.003204	0.076294	-0.22278	-0.005493	0.22583	0.031738	-0.3537	0.49606	0.092773	0.23346	1.2039	-0.42847	0.077362	-0.80658	-0.00061	0.012512	-0.005341	-0.10208	0.012665	-0.002594	-0.00412
24.686	0.002289	-0.022736	-0.27405	0.002136	0.011597	0.06073	-0.26199	0.012665	-0.077972	0.09491	0.016022	-0.007782	0.071106	-0.21118	-0.009766	0.23132	0.10315	-0.3714	0.24704	0.0914	-0.046387	1.1719	-0.37979	0.47897	-0.37949	-0.001678	-0.003967	-0.010834	-0.068207	0.008087	-0.002136	-0.004272
24.687	0.001526	-0.024109	-0.26825	0.036774	-0.000153	0.078278	-0.24994	0.006409	-0.068665	-0.043182	0.030823	0.014191	0.019073	0.093536	-0.022125	0.067444	0.1294	-0.48538	0.36316	0.050812	-0.011597	1.153	-0.39261	0.30472	-0.084534	-0.006714	-0.019379	-0.001678	0.027618	0.001068	-0.00351	-0.003052
24.688	0.01358	-0.043182	-0.25299	0.022125	-0.013275	0.12482	-0.2475	0.006409	-0.04364	-0.18646	0.017853	0.02243	-0.007782	0.10559	-0.03006	0.41153	0.041504	-0.42328	0.33844	0.031128	0.25223	1.189	-0.37338	0.15091	0.11551	-0.001221	0.035706	-0.003357	0.048676	0.010223	-0.00351	-0.003052
24.689	0.011444	-0.032959	-0.27695	0.021515	-0.012665	0.14374	-0.26001	0.00412	-0.04837	-0.25024	0.0177	0.005035	-0.05249	0.19409	-0.025024	-1.02	-0.036011	-0.35706	0.050507	0.033569	0.31036	1.0065	-0.32867	0.11932	0.12924	-0.000305	0.13077	-0.00351	0.062103	-0.004578	-0.003357	-0.006714
